<svg xmlns="http://www.w3.org/2000/svg" viewBox="0 0 750 500"><g id="freepik--background-simple--inject-38"><g><path d="M725.71,255.57c4.21-90.11-41.86-173.33-114.16-210.04-25.26-12.83-53.94-23.63-80.19-24.65-67.52-2.62-151.92,31.49-206.4,43.74-54.48,12.25-136.58-37.62-199.5-19.25C62.54,63.75-7.22,170.02,19.21,285.08c26.43,115.06,93.88,168.84,162.17,175.84,68.29,7,147.36-63.67,203.02-53.71,55.66,9.97,72.54,63.33,181.5,60.71,108.96-2.62,153.46-108.48,159.6-208.21,.09-1.38,.16-2.76,.22-4.14Z" style="fill:#C53F3F;"></path><path d="M725.71,255.57c4.21-90.11-41.86-173.33-114.16-210.04-25.26-12.83-53.94-23.63-80.19-24.65-67.52-2.62-151.92,31.49-206.4,43.74-54.48,12.25-136.58-37.62-199.5-19.25C62.54,63.75-7.22,170.02,19.21,285.08c26.43,115.06,93.88,168.84,162.17,175.84,68.29,7,147.36-63.67,203.02-53.71,55.66,9.97,72.54,63.33,181.5,60.71,108.96-2.62,153.46-108.48,159.6-208.21,.09-1.38,.16-2.76,.22-4.14Z" style="fill:#fff; opacity:.8;"></path></g></g><g id="freepik--Floor--inject-38"><ellipse cx="374.3" cy="382.64" rx="363.11" ry="95.05" style="fill:#263238;"></ellipse></g><g id="freepik--Stars--inject-38"><polygon points="654.13 195.03 672.51 232.26 713.59 238.23 683.86 267.21 690.88 308.13 654.13 288.81 617.39 308.13 624.4 267.21 594.67 238.23 635.76 232.26 654.13 195.03" style="fill:#C53F3F;"></polygon><polygon points="714.58 135.05 721.42 148.91 736.72 151.13 725.65 161.92 728.26 177.16 714.58 169.96 700.9 177.16 703.51 161.92 692.44 151.13 707.74 148.91 714.58 135.05" style="fill:#C53F3F;"></polygon><polygon points="204.99 27.28 211.83 41.14 227.13 43.36 216.06 54.15 218.68 69.39 204.99 62.2 191.31 69.39 193.92 54.15 182.85 43.36 198.15 41.14 204.99 27.28" style="fill:#C53F3F;"></polygon><polygon points="659.23 55.27 666.07 69.14 681.37 71.36 670.3 82.15 672.91 97.38 659.23 90.19 645.55 97.38 648.16 82.15 637.09 71.36 652.39 69.14 659.23 55.27" style="fill:#C53F3F;"></polygon><polygon points="316.45 21.4 320.93 30.48 330.94 31.93 323.7 38.99 325.41 48.96 316.45 44.26 307.5 48.96 309.21 38.99 301.96 31.93 311.98 30.48 316.45 21.4" style="fill:#C53F3F;"></polygon></g><g id="freepik--Flag--inject-38"><g style="opacity:.17;"><path d="M112.89,102.72c-9.41-2.81-18.82-6.34-28.23-10.69v-17.66c9.41,4.35,18.82,7.88,28.23,10.69v17.66Z"></path><path d="M169.51,111.62c-9.41-.27-18.82-1.08-28.23-2.53v-17.66c9.41,1.45,18.82,2.26,28.23,2.53v17.66Z"></path><path d="M226.13,107.42c-9.41,1.55-18.82,2.73-28.23,3.46v-17.66c9.41-.73,18.82-1.91,28.23-3.46v17.66Z"></path><path d="M282.74,94.48c-9.41,2.64-18.82,5.09-28.23,7.28v-17.66c9.41-2.18,18.82-4.64,28.23-7.28v17.66Z"></path><path d="M339.36,77.14c-9.41,3.01-18.82,6.01-28.23,8.92v-17.66c9.41-2.91,18.82-5.92,28.23-8.92v17.66Z"></path><path d="M395.97,59.76c-9.41,2.65-18.82,5.48-28.23,8.39v-17.66c9.41-2.92,18.82-5.75,28.23-8.39v17.66Z"></path><path d="M452.59,46.71c-9.41,1.57-18.82,3.5-28.23,5.7v-17.66c9.41-2.2,18.82-4.13,28.23-5.7v17.66Z"></path><path d="M509.21,42.32c-9.41-.23-18.82,.07-28.23,.83V25.49c9.41-.76,18.82-1.06,28.23-.83v17.66Z"></path><path d="M565.82,50.96c-9.41-2.76-18.82-4.8-28.23-6.21V27.09c9.41,1.41,18.82,3.45,28.23,6.21v17.66Z"></path><path d="M622.44,76.98c-9.41-6.01-18.82-11.12-28.23-15.42v-17.66c9.41,4.3,18.82,9.41,28.23,15.42v17.66Z"></path><path d="M566.79,68.62c9.41,2.81,18.82,6.34,28.23,10.69v-17.66c-9.41-4.35-18.82-7.88-28.23-10.69v17.66Z"></path><path d="M510.17,59.72c9.41,.27,18.82,1.08,28.23,2.53v-17.66c-9.41-1.45-18.82-2.26-28.23-2.53v17.66Z"></path><path d="M453.56,63.92c9.41-1.55,18.82-2.73,28.23-3.46v-17.66c-9.41,.73-18.82,1.91-28.23,3.46v17.66Z"></path><path d="M396.94,76.86c9.41-2.64,18.82-5.09,28.23-7.28v-17.66c-9.41,2.18-18.82,4.64-28.23,7.28v17.66Z"></path><path d="M340.33,94.2c9.41-3.01,18.82-6.01,28.23-8.92v-17.66c-9.41,2.91-18.82,5.92-28.23,8.92v17.66Z"></path><path d="M283.71,111.58c9.41-2.65,18.82-5.48,28.23-8.39v-17.66c-9.41,2.92-18.82,5.75-28.23,8.39v17.66Z"></path><path d="M227.09,124.63c9.41-1.57,18.82-3.5,28.23-5.7v-17.66c-9.41,2.2-18.82,4.13-28.23,5.7v17.66Z"></path><path d="M170.48,129.02c9.41,.23,18.82-.07,28.23-.83v-17.66c-9.41,.76-18.82,1.06-28.23,.83v17.66Z"></path><path d="M113.86,120.38c9.41,2.76,18.82,4.8,28.23,6.21v-17.66c-9.41-1.41-18.82-3.45-28.23-6.21v17.66Z"></path><path d="M57.25,94.36c9.41,6.01,18.82,11.12,28.23,15.42v-17.66c-9.41-4.3-18.82-9.41-28.23-15.42v17.66Z"></path><path d="M112.89,138.21c-9.41-2.81-18.82-6.34-28.23-10.69v-17.66c9.41,4.35,18.82,7.88,28.23,10.69v17.66Z"></path><path d="M169.51,147.11c-9.41-.27-18.82-1.08-28.23-2.53v-17.66c9.41,1.45,18.82,2.26,28.23,2.53v17.66Z"></path><path d="M226.13,142.91c-9.41,1.55-18.82,2.73-28.23,3.46v-17.66c9.41-.73,18.82-1.91,28.23-3.46v17.66Z"></path><path d="M282.74,129.96c-9.41,2.64-18.82,5.09-28.23,7.28v-17.66c9.41-2.18,18.82-4.64,28.23-7.28v17.66Z"></path><path d="M339.36,112.62c-9.41,3-18.82,6.01-28.23,8.92v-17.66c9.41-2.91,18.82-5.92,28.23-8.92v17.66Z"></path><path d="M395.97,95.25c-9.41,2.65-18.82,5.48-28.23,8.39v-17.66c9.41-2.92,18.82-5.75,28.23-8.39v17.66Z"></path><path d="M452.59,82.19c-9.41,1.57-18.82,3.5-28.23,5.7v-17.66c9.41-2.2,18.82-4.13,28.23-5.7v17.66Z"></path><path d="M509.21,77.81c-9.41-.23-18.82,.07-28.23,.83v-17.66c9.41-.76,18.82-1.06,28.23-.83v17.66Z"></path><path d="M565.82,86.45c-9.41-2.76-18.82-4.8-28.23-6.21v-17.66c9.41,1.41,18.82,3.45,28.23,6.21v17.66Z"></path><path d="M622.44,112.47c-9.41-6.01-18.82-11.12-28.23-15.42v-17.66c9.41,4.3,18.82,9.41,28.23,15.42v17.66Z"></path><path d="M566.79,104.11c9.41,2.81,18.82,6.34,28.23,10.69v-17.66c-9.41-4.35-18.82-7.88-28.23-10.69v17.66Z"></path><path d="M510.17,95.2c9.41,.27,18.82,1.08,28.23,2.53v-17.66c-9.41-1.45-18.82-2.26-28.23-2.53v17.66Z"></path><path d="M453.56,99.4c9.41-1.55,18.82-2.73,28.23-3.46v-17.66c-9.41,.73-18.82,1.91-28.23,3.46v17.66Z"></path><path d="M396.94,112.35c9.41-2.64,18.82-5.09,28.23-7.28v-17.66c-9.41,2.18-18.82,4.64-28.23,7.28v17.66Z"></path><path d="M340.33,129.69c9.41-3.01,18.82-6.01,28.23-8.92v-17.66c-9.41,2.91-18.82,5.92-28.23,8.92v17.66Z"></path><path d="M283.71,147.06c9.41-2.65,18.82-5.48,28.23-8.39v-17.66c-9.41,2.92-18.82,5.75-28.23,8.39v17.66Z"></path><path d="M227.09,160.12c9.41-1.57,18.82-3.5,28.23-5.7v-17.66c-9.41,2.2-18.82,4.13-28.23,5.7v17.66Z"></path><path d="M170.48,164.51c9.41,.23,18.82-.07,28.23-.83v-17.66c-9.41,.76-18.82,1.06-28.23,.83v17.66Z"></path><path d="M113.86,155.87c9.41,2.76,18.82,4.8,28.23,6.21v-17.66c-9.41-1.41-18.82-3.45-28.23-6.21v17.66Z"></path><path d="M57.25,129.84c9.41,6.01,18.82,11.12,28.23,15.42v-17.66c-9.41-4.3-18.82-9.41-28.23-15.42v17.66Z"></path><path d="M112.89,173.69c-9.41-2.81-18.82-6.34-28.23-10.69v-17.66c9.41,4.35,18.82,7.88,28.23,10.69v17.66Z"></path><path d="M169.51,182.59c-9.41-.27-18.82-1.08-28.23-2.53v-17.66c9.41,1.45,18.82,2.26,28.23,2.53v17.66Z"></path><path d="M226.13,178.39c-9.41,1.55-18.82,2.73-28.23,3.46v-17.66c9.41-.73,18.82-1.91,28.23-3.46v17.66Z"></path><path d="M282.74,165.45c-9.41,2.64-18.82,5.09-28.23,7.28v-17.66c9.41-2.18,18.82-4.64,28.23-7.28v17.66Z"></path><path d="M339.36,148.11c-9.41,3.01-18.82,6.01-28.23,8.92v-17.66c9.41-2.91,18.82-5.92,28.23-8.92v17.66Z"></path><path d="M395.97,130.74c-9.41,2.65-18.82,5.48-28.23,8.39v-17.66c9.41-2.92,18.82-5.75,28.23-8.39v17.66Z"></path><path d="M452.59,117.68c-9.41,1.57-18.82,3.5-28.23,5.7v-17.66c9.41-2.2,18.82-4.13,28.23-5.7v17.66Z"></path><path d="M509.21,113.29c-9.41-.23-18.82,.07-28.23,.83v-17.66c9.41-.76,18.82-1.06,28.23-.83v17.66Z"></path><path d="M565.82,121.93c-9.41-2.76-18.82-4.8-28.23-6.21v-17.66c9.41,1.41,18.82,3.45,28.23,6.21v17.66Z"></path><path d="M622.44,147.96c-9.41-6.01-18.82-11.12-28.23-15.42v-17.66c9.41,4.3,18.82,9.41,28.23,15.42v17.66Z"></path><path d="M566.79,139.59c9.41,2.81,18.82,6.34,28.23,10.69v-17.66c-9.41-4.35-18.82-7.88-28.23-10.69v17.66Z"></path><path d="M510.17,130.69c9.41,.27,18.82,1.08,28.23,2.53v-17.66c-9.41-1.45-18.82-2.26-28.23-2.53v17.66Z"></path><path d="M453.56,134.89c9.41-1.55,18.82-2.73,28.23-3.46v-17.66c-9.41,.73-18.82,1.91-28.23,3.46v17.66Z"></path><path d="M396.94,147.84c9.41-2.64,18.82-5.09,28.23-7.28v-17.66c-9.41,2.18-18.82,4.64-28.23,7.28v17.66Z"></path><path d="M340.33,165.17c9.41-3.01,18.82-6.01,28.23-8.92v-17.66c-9.41,2.91-18.82,5.92-28.23,8.92v17.66Z"></path><path d="M283.71,182.55c9.41-2.65,18.82-5.48,28.23-8.39v-17.66c-9.41,2.92-18.82,5.75-28.23,8.39v17.66Z"></path><path d="M227.09,195.61c9.41-1.57,18.82-3.5,28.23-5.7v-17.66c-9.41,2.2-18.82,4.13-28.23,5.7v17.66Z"></path><path d="M170.48,199.99c9.41,.23,18.82-.07,28.23-.83v-17.66c-9.41,.76-18.82,1.06-28.23,.83v17.66Z"></path><path d="M113.86,191.35c9.41,2.76,18.82,4.8,28.23,6.21v-17.66c-9.41-1.41-18.82-3.45-28.23-6.21v17.66Z"></path><path d="M57.25,165.33c9.41,6.01,18.82,11.12,28.23,15.42v-17.66c-9.41-4.3-18.82-9.41-28.23-15.42v17.66Z"></path><path d="M112.89,209.18c-9.41-2.81-18.82-6.34-28.23-10.69v-17.66c9.41,4.35,18.82,7.88,28.23,10.69v17.66Z"></path><path d="M169.51,218.08c-9.41-.27-18.82-1.08-28.23-2.53v-17.66c9.41,1.45,18.82,2.26,28.23,2.53v17.66Z"></path><path d="M226.13,213.88c-9.41,1.55-18.82,2.73-28.23,3.46v-17.66c9.41-.73,18.82-1.91,28.23-3.46v17.66Z"></path><path d="M282.74,200.93c-9.41,2.64-18.82,5.09-28.23,7.28v-17.66c9.41-2.18,18.82-4.64,28.23-7.28v17.66Z"></path><path d="M339.36,183.6c-9.41,3.01-18.82,6.01-28.23,8.92v-17.66c9.41-2.91,18.82-5.92,28.23-8.92v17.66Z"></path><path d="M395.97,166.22c-9.41,2.65-18.82,5.48-28.23,8.39v-17.66c9.41-2.92,18.82-5.75,28.23-8.39v17.66Z"></path><path d="M452.59,153.16c-9.41,1.57-18.82,3.5-28.23,5.7v-17.66c9.41-2.2,18.82-4.13,28.23-5.7v17.66Z"></path><path d="M509.21,148.78c-9.41-.23-18.82,.07-28.23,.83v-17.66c9.41-.76,18.82-1.06,28.23-.83v17.66Z"></path><path d="M565.82,157.42c-9.41-2.76-18.82-4.8-28.23-6.21v-17.66c9.41,1.41,18.82,3.45,28.23,6.21v17.66Z"></path><path d="M622.44,183.44c-9.41-6.01-18.82-11.12-28.23-15.42v-17.66c9.41,4.3,18.82,9.41,28.23,15.42v17.66Z"></path><path d="M566.79,175.08c9.41,2.81,18.82,6.34,28.23,10.69v-17.66c-9.41-4.35-18.82-7.88-28.23-10.69v17.66Z"></path><path d="M510.17,166.18c9.41,.27,18.82,1.08,28.23,2.53v-17.66c-9.41-1.45-18.82-2.26-28.23-2.53v17.66Z"></path><path d="M453.56,170.38c9.41-1.55,18.82-2.73,28.23-3.46v-17.66c-9.41,.73-18.82,1.91-28.23,3.46v17.66Z"></path><path d="M396.94,183.32c9.41-2.64,18.82-5.09,28.23-7.28v-17.66c-9.41,2.18-18.82,4.64-28.23,7.28v17.66Z"></path><path d="M340.33,200.66c9.41-3.01,18.82-6.01,28.23-8.92v-17.66c-9.41,2.91-18.82,5.92-28.23,8.92v17.66Z"></path><path d="M283.71,218.04c9.41-2.65,18.82-5.48,28.23-8.39v-17.66c-9.41,2.92-18.82,5.75-28.23,8.39v17.66Z"></path><path d="M227.09,231.09c9.41-1.57,18.82-3.5,28.23-5.7v-17.66c-9.41,2.2-18.82,4.13-28.23,5.7v17.66Z"></path><path d="M170.48,235.48c9.41,.23,18.82-.07,28.23-.83v-17.66c-9.41,.76-18.82,1.06-28.23,.83v17.66Z"></path><path d="M113.86,226.84c9.41,2.76,18.82,4.8,28.23,6.21v-17.66c-9.41-1.41-18.82-3.45-28.23-6.21v17.66Z"></path><path d="M57.25,200.82c9.41,6.01,18.82,11.12,28.23,15.42v-17.66c-9.41-4.3-18.82-9.41-28.23-15.42v17.66Z"></path><path d="M112.89,244.66c-9.41-2.81-18.82-6.34-28.23-10.69v-17.66c9.41,4.35,18.82,7.88,28.23,10.69v17.66Z"></path><path d="M169.51,253.57c-9.41-.27-18.82-1.08-28.23-2.53v-17.66c9.41,1.45,18.82,2.26,28.23,2.53v17.66Z"></path><path d="M226.13,249.37c-9.41,1.55-18.82,2.73-28.23,3.46v-17.66c9.41-.73,18.82-1.91,28.23-3.46v17.66Z"></path><path d="M282.74,236.42c-9.41,2.64-18.82,5.09-28.23,7.28v-17.66c9.41-2.18,18.82-4.64,28.23-7.28v17.66Z"></path><path d="M339.36,219.08c-9.41,3.01-18.82,6.01-28.23,8.92v-17.66c9.41-2.91,18.82-5.92,28.23-8.92v17.66Z"></path><path d="M395.97,201.71c-9.41,2.65-18.82,5.48-28.23,8.39v-17.66c9.41-2.92,18.82-5.75,28.23-8.39v17.66Z"></path><path d="M452.59,188.65c-9.41,1.57-18.82,3.5-28.23,5.7v-17.66c9.41-2.2,18.82-4.13,28.23-5.7v17.66Z"></path><path d="M509.21,184.26c-9.41-.23-18.82,.07-28.23,.83v-17.66c9.41-.76,18.82-1.06,28.23-.83v17.66Z"></path><path d="M565.82,192.91c-9.41-2.76-18.82-4.8-28.23-6.21v-17.66c9.41,1.41,18.82,3.45,28.23,6.21v17.66Z"></path><path d="M622.44,218.93c-9.41-6.01-18.82-11.12-28.23-15.42v-17.66c9.41,4.3,18.82,9.41,28.23,15.42v17.66Z"></path><path d="M566.79,210.57c9.41,2.81,18.82,6.34,28.23,10.69v-17.66c-9.41-4.35-18.82-7.88-28.23-10.69v17.66Z"></path><path d="M510.17,201.66c9.41,.27,18.82,1.08,28.23,2.53v-17.66c-9.41-1.45-18.82-2.26-28.23-2.53v17.66Z"></path><path d="M453.56,205.86c9.41-1.55,18.82-2.73,28.23-3.46v-17.66c-9.41,.73-18.82,1.91-28.23,3.46v17.66Z"></path><path d="M396.94,218.81c9.41-2.64,18.82-5.09,28.23-7.28v-17.66c-9.41,2.18-18.82,4.64-28.23,7.28v17.66Z"></path><path d="M340.33,236.15c9.41-3.01,18.82-6.01,28.23-8.92v-17.66c-9.41,2.91-18.82,5.92-28.23,8.92v17.66Z"></path><path d="M283.71,253.52c9.41-2.65,18.82-5.48,28.23-8.39v-17.66c-9.41,2.92-18.82,5.75-28.23,8.39v17.66Z"></path><path d="M227.09,266.58c9.41-1.57,18.82-3.5,28.23-5.7v-17.66c-9.41,2.2-18.82,4.13-28.23,5.7v17.66Z"></path><path d="M170.48,270.97c9.41,.23,18.82-.07,28.23-.83v-17.66c-9.41,.76-18.82,1.06-28.23,.83v17.66Z"></path><path d="M113.86,262.32c9.41,2.76,18.82,4.8,28.23,6.21v-17.66c-9.41-1.41-18.82-3.45-28.23-6.21v17.66Z"></path><path d="M57.25,236.3c9.41,6.01,18.82,11.12,28.23,15.42v-17.66c-9.41-4.3-18.82-9.41-28.23-15.42v17.66Z"></path></g></g><g id="freepik--Car--inject-38"><g><path d="M236.2,420.44l36.18-11.42,59.29-85.06L52.64,258.87s-5.8,9.02-7.09,14.82c-1.29,5.8-3.22,42.53-3.22,42.53l6.2,11.13,187.67,93.08Z" style="fill:#263238; stroke:#263238; stroke-miterlimit:10;"></path><path d="M42.24,164.45s-10.02,28.7-6.38,35.53,16.4,10.02,16.4,10.02l.91,7.74,22.78,.46,4.56-7.74s-16.4-.91-20.04-5.01c-3.64-4.1-3.19-35.53-3.19-35.53l86.31-6.13,.25-4.8-96.57,4.56s-.91-3.64-5.01,.91Z" style="fill:#263238; stroke:#263238; stroke-miterlimit:10;"></path><path d="M346.26,382.13c-4.96-35.88-24.9-62.77-44.54-60.06l-32.97,5.62,5.57,40.3c-.55,7.55-.32,15.63,.83,23.98s3.13,16.19,5.71,23.3l5.86,42.38,32.97-5.62c19.63-2.72,31.53-34.01,26.56-69.89Z" style="fill:#263238; stroke:#263238; stroke-miterlimit:10;"></path><path d="M120.87,316.52c-3.59-25.98-18.03-45.45-32.25-43.49l-23.87,4.07,4.04,29.18c-.4,5.46-.23,11.32,.6,17.36,.84,6.04,2.26,11.72,4.13,16.87l4.24,30.68,23.87-4.07c14.22-1.97,22.83-24.62,19.24-50.61Z" style="fill:#263238; stroke:#263238; stroke-miterlimit:10;"></path><g><ellipse cx="70.94" cy="324.26" rx="22.62" ry="47.77" transform="translate(-43.75 12.78) rotate(-7.87)" style="fill:#263238; stroke:#263238; stroke-miterlimit:10;"></ellipse><ellipse cx="69.24" cy="324.49" rx="16.86" ry="39.22" transform="translate(-43.8 12.55) rotate(-7.87)" style="fill:#fff; stroke:#263238; stroke-miterlimit:10;"></ellipse><path d="M79.52,322.54c.81,5.89-.79,10.98-3.57,11.36s-5.71-4.08-6.52-9.96c-.81-5.89,.79-10.98,3.57-11.36s5.71,4.08,6.52,9.96Z" style="fill:#fff; stroke:#263238; stroke-miterlimit:10;"></path></g><path d="M132.94,163.72l-53.91,48.94s-23.64-2.07-27.37,7.88-16.59,87.09-13.27,94.97c3.32,7.88,8.71,14.52,8.71,14.52,0,0,0-42.72,2.9-47.69,2.9-4.98,7.88-13.27,19.08-5.39,11.2,7.88,18.66,29.03,24.88,50.18,6.22,21.15,4.56,35.67,4.56,35.67l137.69,57.65s-.41-58.48,2.07-69.26c2.49-10.78,12.44-27.79,31.52-26.54,19.08,1.24,41.89,24.05,48.11,51.43,6.22,27.37,8.71,54.33,8.71,54.33v26.13s60.13,16.59,119.02,9.12c58.89-7.46,178.33-37.32,190.77-48.52,12.44-11.2-4.56-29.86-4.56-29.86,0,0,11.2-36.91,8.71-46.03-2.49-9.12-14.52-17-14.52-17,0,0-9.54-31.1-25.71-44.79-16.17-13.69-123.59-45.62-123.59-45.62,0,0-91.24-71.33-104.09-77.14-12.86-5.81-57.65-10.37-61.38-10.37s-54.33-.83-75.89,.83c-46.79,3.6-90.41,3.73-102.44,16.59Z" style="fill:#C53F3F; stroke:#263238; stroke-miterlimit:10;"></path><g style="opacity:.26;"><path d="M631.85,387.26s11.2-36.91,8.71-46.03c-2.49-9.12-14.52-17-14.52-17,0,0-9.54-31.1-25.71-44.79-5.32-4.5-20.52-10.98-38.52-17.65,4.18,6.27,8.56,14.14,6.63,17.15l-148.37,30.16s-18.06-9.65-45.8-15.72c-27.74-6.08-24.7-1.9-43.7-7.98-19-6.08-24.32-14.06-44.08-16.34-19.76-2.28-32.3,0-32.3,0,0,0,25.46-.76,39.52,6.84,14.06,7.6,12.16,10.64,.38,13.68-11.78,3.04-27.74-.76-32.3-2.28-4.56-1.52-14.82-3.04-14.82-3.04,0,0,20.9,7.6,35.72,11.4,14.82,3.8,19.76-5.32,47.88-1.9,28.12,3.42,34.2,12.54,32.68,21.66-1.52,9.12-15.58,12.16-30.78,11.02-15.2-1.14-38.76-4.56-65.36-19.38-26.6-14.82-47.88-19.38-50.16-19.76s36.1,13.3,39.14,21.66c3.04,8.36,0,24.32-16.72,25.46-16.72,1.14-23.56-15.2-33.06-25.08-9.5-9.88-26.98-13.68-26.98-13.68,0,0,17.48,8.74,26.22,19.38s17.48,28.5,31.92,33.06c.52,.17,1.04,.29,1.56,.4,3.4-10.69,13.22-24.99,30.77-23.85,6.54,.43,13.53,3.39,20.13,8.21,21.88-.15,36.84,5.92,45.2,17.9,8.74,12.54,3.8,24.7-8.74,25.84-2.95,.27-5.73,.41-8.26,.47,6.06,27.03,8.49,53.34,8.49,53.34v26.13s60.13,16.59,119.02,9.12c58.89-7.46,178.33-37.32,190.77-48.52,12.44-11.2-4.56-29.86-4.56-29.86Z"></path><path d="M194.91,335.55c-16.53-16.92-39.86-20.72-60.9-29.33-15.83-6.47-17.62-25.54-30.93-40.65-13.31-15.11-30.57-18.34-30.57-18.34,0,0,16.55,5.4,24.82,21.22,8.27,15.83,7.91,28.78-1.44,27.7-9.35-1.08-14.75-23.74-21.58-29.13-6.83-5.4-14.03-6.47-14.03-6.47,0,0,11.51,4.68,19.06,20.14,7.55,15.47,16.19,30.21,26.98,33.81,10.79,3.6,23.02-.72,39.21,2.88,16.19,3.6,17.98,1.8,33.45,10.79,.96,.56,1.87,1.08,2.71,1.58,3.99,2.93,7.46,5.88,9.42,8.47,7.22,9.5,6.84,19-2.28,23.18-9.12,4.18-17.1,1.14-24.32-4.18-7.22-5.32-30.4-26.22-30.4-26.22,0,0,13.68,14.44,25.84,28.12,12.16,13.68,22.8,19.76,37.24,19,13.12-.69,29.7,2.7,39.17,8.17,.08-4.78,.18-9.58,.33-14.07-.51-.18-1.01-.37-1.5-.56-22.04-8.74-24.32-19.76-40.28-36.1Z"></path></g><path d="M162.44,270.88l-10.42-3.72s-2.98,1.12-3.35,2.98,2.2,3.94,2.2,3.94l14.52,4.47s1.82-5.19-2.94-7.66Z" style="fill:#263238; stroke:#263238; stroke-miterlimit:10;"></path><path d="M280,261.66s105.61,26.4,140.07,47.43c34.46,21.03,39.09,31.72,39.09,31.72l27.59,3.18,110.08-21.48s4.92-4.92,3.58-7.16c-1.34-2.24-10.29-23.27-29.09-36.69-11.26-8.04-32.61-21.05-47.94-30.2-25.17-8.28-46.63-14.66-46.63-14.66,0,0-5.41-4.23-13.77-10.7l-201.32,26.47,18.35,12.08Z" style="fill:#263238; stroke:#263238; stroke-miterlimit:10;"></path><g><path d="M380.44,162.13s-35.01-2.15-68.94,0c-33.93,2.15-67.06,7.27-81.6,9.96,0,0-7.27,.54-7,7.54,.27,7,35.01,83.21,35.01,83.21l210.86-23.97s8.13-.98,7.97-5.07c0,0-67.17-52.51-94.36-71.09l-1.94-.59Z" style="fill:#263238; stroke:#263238; stroke-miterlimit:10;"></path><g><path d="M244.92,233.89l102.87,18.74,42.79-4.86-162.05-52.07c4.42,10.89,10.74,25.43,16.39,38.2Z" style="fill:#fff; opacity:.21;"></path><path d="M311.5,162.13c-27.28,1.73-54.02,5.38-71.02,8.14l232.73,67.45c1.87-.77,3.61-2,3.54-3.91,0,0-19.66-15.37-42.01-32.42l-106.16-40.01c-5.61,.15-11.35,.39-17.07,.75Z" style="fill:#fff; opacity:.21;"></path></g><path d="M380.44,162.13s-35.01-2.15-68.94,0c-33.93,2.15-67.06,7.27-81.6,9.96,0,0-7.27,.54-7,7.54,.27,7,35.01,83.21,35.01,83.21l210.86-23.97s8.13-.98,7.97-5.07c0,0-67.17-52.51-94.36-71.09l-1.94-.59Z" style="fill:none; stroke:#263238; stroke-miterlimit:10;"></path></g><path d="M137.49,169.81s-34.26,29.71-38.81,37.6c-4.55,7.88-6.97,14.86-5.76,15.46,1.21,.61,139.48,43.97,140.69,44.27,1.21,.3,4.85,.61,4.85-1.21s.91-7.88,.91-7.88c0,0-29.41-75.2-34.87-80.05-5.46-4.85-48.21-11.83-57.31-11.22-9.1,.61-9.7,3.03-9.7,3.03Z" style="fill:#263238; stroke:#263238; stroke-miterlimit:10;"></path><path d="M150.79,241.19c.9,.28,1.81,.57,2.72,.86,4.32-40,13.56-65.03,16.82-72.89-.96-.15-1.9-.3-2.84-.44-3.53,8.68-12.44,33.54-16.7,72.48Z" style="fill:#858585; stroke:#263238; stroke-miterlimit:10;"></path><g><path d="M210.71,237.6s-16.82-1.09-18.03,1.04-2.12,12.73-.3,13.95c1.82,1.21,22.44,0,23.95-1.21,1.52-1.21,1.52-6.67,1.21-9.7s-1.24-4.22-6.83-4.07Z" style="fill:#858585; stroke:#263238; stroke-miterlimit:10;"></path><path d="M210.61,252.78s3.23,3.64,5.66,4.65c2.42,1.01,4.65-1.21,3.64-2.22-1.01-1.01-3.64-1.21-5.25-2.22l-1.62-1.01-2.42,.81Z" style="fill:#858585; stroke:#263238; stroke-miterlimit:10;"></path></g><path d="M218.19,262.34c9.27,2.9,15.17,4.74,15.42,4.8,1.21,.3,4.85,.61,4.85-1.21s.91-7.88,.91-7.88c0,0-6.73-17.21-14.35-35.69l-6.83,39.98Z" style="fill:#858585; stroke:#263238; stroke-miterlimit:10;"></path><g><path d="M491.66,248.58s1.08-2.15-.81-3.23-27.47-7.27-34.2-8.35c-6.73-1.08-71.1,11.04-78.91,14-7.81,2.96-9.69,7.27-8.89,9.16s28.55,15.08,34.2,15.89c5.66,.81,86.18-11.58,88.06-13.73,1.89-2.15-.54-6.19-.54-6.19l1.08-7.54Z" style="fill:#C53F3F; stroke:#263238; stroke-miterlimit:10;"></path><path d="M431.03,256.1s-3.25,.31-6.35,2.01c-3.1,1.7-12.23,4.64-13.16,6.97-.93,2.32,1.39,3.87,1.86,3.71,.46-.15,73.52-11.3,74.45-11.92,.93-.62,2.63-9.13,1.55-9.13s-58.35,8.36-58.35,8.36Z" style="fill:#263238; stroke:#263238; stroke-miterlimit:10;"></path><g><path d="M417.74,268.09c.89-.14,1.9-.3,3.02-.47,1.08-4.05,2.42-7.16,3.52-9.3-.99,.5-2.38,1.09-3.91,1.73-.92,2.17-1.85,4.86-2.62,8.05Z" style="fill:#C53F3F; stroke:#263238; stroke-miterlimit:10;"></path><path d="M438.84,264.81c.99-.15,1.98-.31,2.99-.47,1.15-4.59,3.01-8.14,4.54-10.48-1.25,.18-2.46,.36-3.61,.52-1.48,2.63-3,6.13-3.92,10.42Z" style="fill:#C53F3F; stroke:#263238; stroke-miterlimit:10;"></path><path d="M468.57,250.65c-1.28,.18-2.57,.37-3.88,.56-1.77,2.59-3.79,6.1-5.43,10.41,1.09-.17,2.17-.34,3.24-.51,1.98-4.68,4.38-8.25,6.07-10.46Z" style="fill:#C53F3F; stroke:#263238; stroke-miterlimit:10;"></path></g><path d="M412.14,270.49s-.93,.15-3.1-.31c-2.17-.46-24.3-12.07-27.55-15.17-3.25-3.1,2.94-3.41,13.78-3.71s28.64,4.8,28.64,4.8" style="fill:none; stroke:#263238; stroke-miterlimit:10;"></path><path d="M491.7,258.94c-.64,.56-1.72,1.29-3.4,1.8-3.1,.93-79.1,13.47-84.36,13.31-5.26-.15-32.81-15.63-32.81-15.63l-1.88-1.18c-.61,1.18-.69,2.22-.39,2.92,.81,1.89,28.55,15.08,34.2,15.89,5.66,.81,86.18-11.58,88.06-13.73,.81-.93,.82-2.21,.57-3.37Z" style="fill:#858585; stroke:#263238; stroke-miterlimit:10;"></path></g><g><path d="M588.4,320.96s-83.55,14.24-90.29,16.48c-6.74,2.25-10.86,6.74-10.12,13.86,.75,7.12,3,16.48,10.12,18.36s49.83-3.75,76.43-12.36c26.6-8.62,33.72-13.86,32.22-18.73-1.5-4.87-11.99-19.48-18.36-17.61Z" style="fill:#5c5c5c; stroke:#263238; stroke-miterlimit:10;"></path><path d="M585.41,334.45l-2.68-12.52c-18.91,3.25-78.94,13.62-84.61,15.51-6.74,2.25-10.86,6.74-10.12,13.86,.14,1.33,.33,2.75,.6,4.18,14.19-2.55,44.13-7.99,65.71-12.42,29.22-5.99,31.1-8.62,31.1-8.62Z" style="fill:#263238; stroke:#263238; stroke-miterlimit:10;"></path></g><g><path d="M621,371.16l-137.5,30.72s.75,19.11,3,22.48,7.49,4.12,12.36,3.75c4.87-.37,108.65-26.23,115.77-32.22,7.12-5.99,6.37-24.73,6.37-24.73Z" style="fill:#5c5c5c; stroke:#263238; stroke-miterlimit:10;"></path><path d="M486.5,424.37c.24,.36,.53,.67,.83,.97,3.17,.26,5.92-.6,5.92-.6l101.91-26.6s9.37-1.5,12.74-8.24c2.19-4.38,1.85-11.58,1.34-16.1l-125.73,28.09s.75,19.11,3,22.48Z" style="fill:#263238; stroke:#263238; stroke-miterlimit:10;"></path></g><path d="M497.74,437.79c55.52-11.45,118.98-27.78,124.75-32.16l9.37-7.12" style="fill:none; stroke:#263238; stroke-miterlimit:10;"></path><path d="M345.14,435.01c19.09,5.13,51.95,13.2,73.92,14.46,11.44,.66,38.74-3.67,69.77-9.87" style="fill:none; stroke:#263238; stroke-miterlimit:10;"></path><path d="M329.89,430.73s2.35,.7,6.37,1.83" style="fill:none; stroke:#263238; stroke-miterlimit:10;"></path><path d="M260.21,266.64s90.29,29.6,108.27,38.96c17.98,9.37,23.23,14.24,23.23,14.24" style="fill:none; stroke:#263238; stroke-miterlimit:10;"></path><path d="M234.38,327.93c.3,14.1-.02,27.5-.02,27.5" style="fill:none; stroke:#263238; stroke-miterlimit:10;"></path><path d="M237.73,271.88s-6.37,17.61-4.5,34.84c.5,4.6,.81,10.2,1,15.96" style="fill:none; stroke:#263238; stroke-miterlimit:10;"></path><path d="M142.29,319.36c.16,4.89,.28,7.97,.28,7.97" style="fill:none; stroke:#263238; stroke-miterlimit:10;"></path><path d="M147.06,245.66s-5.25,2.62-5.99,10.86c-.52,5.67,.39,37.07,1,56.1" style="fill:none; stroke:#263238; stroke-miterlimit:10;"></path><g><ellipse cx="277.74" cy="392.66" rx="35.89" ry="65.59" transform="translate(-51.18 41.75) rotate(-7.87)" style="fill:#263238; stroke:#263238; stroke-miterlimit:10;"></ellipse><ellipse cx="275.04" cy="393.04" rx="26.75" ry="53.86" transform="translate(-51.25 41.39) rotate(-7.87)" style="fill:#fff; stroke:#263238; stroke-miterlimit:10;"></ellipse><ellipse cx="283.36" cy="391.16" rx="8.09" ry="14.78" transform="translate(-50.92 42.51) rotate(-7.87)" style="fill:#fff; stroke:#263238; stroke-miterlimit:10;"></ellipse></g><path d="M233.8,384.29s-97.55-35.58-105.96-37.87-24.86,0-24.86,0l129.68,46.29" style="fill:#fff; opacity:.49;"></path><line x1="232.27" y1="408.39" x2="101.82" y2="357.51" style="fill:#fff; stroke:#263238; stroke-miterlimit:10;"></line><path d="M627.49,343.36c1.4-.74,2.4-1.38,3-1.92,3.83-3.44,4.21-5.74,4.21-5.74" style="fill:none; stroke:#263238; stroke-miterlimit:10;"></path><path d="M374.05,381.61c20.55,3.11,54.91,6.53,88.5,1.91,52.79-7.27,78.04-13.01,110.55-21.8,20.59-5.57,36.58-10.84,46.51-14.82" style="fill:none; stroke:#263238; stroke-miterlimit:10;"></path><path d="M355.06,378.17s4.22,.97,11.45,2.23" style="fill:none; stroke:#263238; stroke-miterlimit:10;"></path><path d="M457.58,395l-.38,38.64s-12.62,6.12-30.99,1.53-29.84-16.83-33.66-24.48c-3.83-7.65-4.21-11.48-2.3-12.24,1.91-.76,50.88,0,67.33-3.44Z" style="fill:none; stroke:#263238; stroke-miterlimit:10;"></path><path d="M631.85,387.26c-1.32,2.97-4.81,2-4.81,2l3.83-34.43s6.5-3.06,9.18-5.74" style="fill:none; stroke:#263238; stroke-miterlimit:10;"></path><path d="M238.28,301.17s57.8,23.05,128.36,35.81c0,0-48.22-28.72-76.95-36.52-28.72-7.8-49.64-.35-51.42,.71Z" style="fill:#fff; opacity:.49;"></path><g><path d="M615.75,334.82c3.75,0,10.29-10.6,10.29-10.6,0,0-7.23-23.56-19.77-38.7-1.03,1.38-8.73,12.01-6.63,19.7,2.25,8.24,12.36,29.6,16.11,29.6Z" style="fill:#fff; stroke:#263238; stroke-miterlimit:10;"></path><g><path d="M609.99,310.33c-2.95,0-5.55,1.52-7.05,3.83,1.86,4.35,4.17,9.12,6.39,12.99,.22,.02,.44,.03,.66,.03,4.65,0,8.42-3.77,8.42-8.42s-3.77-8.42-8.42-8.42Z" style="fill:#fff; stroke:#263238; stroke-miterlimit:10;"></path><path d="M605.99,290.14c0,3.28,2.66,5.94,5.94,5.94,.52,0,1.03-.07,1.51-.2-1.9-3.21-4.01-6.37-6.29-9.26-.73,.99-1.16,2.2-1.16,3.52Z" style="fill:#fff; stroke:#263238; stroke-miterlimit:10;"></path></g></g><g><path d="M386.09,322.08s-13.49-.75-14.99,5.99c-1.5,6.74,7.12,37.84,11.24,38.59,4.12,.75,58.07,.75,58.07,.75,0,0,9.74,4.12,16.11-.37,6.37-4.5,8.99-19.48,2.62-26.23s-11.99-8.62-28.85-11.99c-16.86-3.37-44.21-6.74-44.21-6.74Z" style="fill:#fff; stroke:#263238; stroke-miterlimit:10;"></path><circle cx="448" cy="351.15" r="8.42" style="fill:#fff; stroke:#263238; stroke-miterlimit:10;"></circle><circle cx="394.33" cy="356.87" r="5.94" style="fill:#fff; stroke:#263238; stroke-miterlimit:10;"></circle><circle cx="383.2" cy="335.6" r="5.94" style="fill:#fff; stroke:#263238; stroke-miterlimit:10;"></circle></g><path d="M132.94,163.72l-53.91,48.94s-23.64-2.07-27.37,7.88-16.59,87.09-13.27,94.97c3.32,7.88,8.71,14.52,8.71,14.52,0,0,0-42.72,2.9-47.69,2.9-4.98,7.88-13.27,19.08-5.39,11.2,7.88,18.66,29.03,24.88,50.18,6.22,21.15,4.56,35.67,4.56,35.67l137.69,57.65s-.41-58.48,2.07-69.26c2.49-10.78,12.44-27.79,31.52-26.54,19.08,1.24,41.89,24.05,48.11,51.43,6.22,27.37,8.71,54.33,8.71,54.33v26.13s60.13,16.59,119.02,9.12c58.89-7.46,178.33-37.32,190.77-48.52,12.44-11.2-4.56-29.86-4.56-29.86,0,0,11.2-36.91,8.71-46.03-2.49-9.12-14.52-17-14.52-17,0,0-9.54-31.1-25.71-44.79-16.17-13.69-123.59-45.62-123.59-45.62,0,0-91.24-71.33-104.09-77.14-12.86-5.81-57.65-10.37-61.38-10.37s-54.33-.83-75.89,.83c-46.79,3.6-90.41,3.73-102.44,16.59Z" style="fill:none; stroke:#263238; stroke-miterlimit:10;"></path></g></g></svg>
